<svg width="36" height="36" viewBox="0 0 36 36" fill="none" xmlns="http://www.w3.org/2000/svg">
<g clip-path="url(#clip0)">
<path d="M13.6731 1.12783e-06C13.4721 0.0298851 13.2802 0.103629 13.1109 0.216001C13.1109 0.216001 11.3594 1.31815 9.47631 2.51031C7.59324 3.70108 5.49831 5.01369 5.01924 5.27954C4.98968 5.29237 4.96059 5.30622 4.932 5.32108C3.19293 6.39416 2.83154 8.14708 2.76924 9.13016C2.76508 9.17585 2.76924 9.21323 2.76924 9.26169C2.754 9.63 2.76924 9.86677 2.76924 9.86677V27.954C2.76924 30.582 5.83339 31.8462 8.74108 31.8462C9.71031 31.8462 10.6795 31.6897 11.5103 31.4128C12.0642 31.1358 12.4615 30.582 12.4615 30.0282V15.4897C12.4615 12.3051 13.1539 10.8097 15.2308 9.56354C15.7846 9.28662 21.5917 5.27816 21.5917 5.27816C21.8686 5.00123 22.1539 4.43908 22.1539 4.02369V3.89354C22.1539 3.33969 21.8769 2.916 21.4615 2.63908C21.0462 2.36215 20.4923 2.36215 20.0769 2.63908C19.9385 2.77754 11.4923 8.46416 9.69231 9.43339C7.89231 10.5411 6.21277 10.8083 5.79739 10.2545C5.66862 10.1257 5.55647 9.73108 5.53847 9.34616V9.30323V9.25892C5.53985 8.88231 5.63677 8.17339 6.40385 7.70123C7.182 7.26785 9.11354 6.03416 10.9911 4.84616C11.7845 4.34354 11.8828 4.28954 12.5045 3.89354C12.5863 4.23179 12.7925 4.52682 13.0821 4.7199C13.3716 4.91298 13.7232 4.98995 14.0669 4.93549C14.4107 4.88102 14.7213 4.69912 14.9369 4.42598C15.1526 4.15285 15.2575 3.80852 15.2308 3.46154V1.38462C15.2323 1.18726 15.1917 0.991853 15.1115 0.811496C15.0314 0.631138 14.9136 0.469997 14.7661 0.338877C14.6186 0.207756 14.4447 0.109686 14.2562 0.0512405C14.0677 -0.00720506 13.8689 -0.0246753 13.6731 1.12783e-06ZM24.75 4.84616C24.5298 4.88277 24.3218 4.97208 24.1435 5.10646C24.1435 5.10646 17.1734 9.79616 15.966 10.6006C15.9514 10.6151 15.9371 10.6298 15.9231 10.6449C14.9206 11.3968 14.3266 12.2912 14.0622 13.1095C13.8752 13.6897 13.8475 14.1632 13.8462 14.5385V14.9718C13.8442 15.0147 13.8442 15.0577 13.8462 15.1006V31.8462C13.8462 34.4769 16.8757 36 19.6449 36C20.8911 36 22.0154 35.7314 22.8462 35.1775C24.5077 34.2083 32.5385 27.9526 32.5385 27.9526C32.9539 27.6757 33.2308 27.2852 33.2308 26.8698V8.86985C33.2308 8.17754 32.9622 7.76216 32.4083 7.48523C31.9929 7.20831 31.3103 7.33846 30.8949 7.61539C28.6795 9.27693 22.716 13.968 21.3314 14.7988C19.3929 15.9065 17.5666 16.1834 16.8743 15.4911C16.5974 15.2142 16.6154 14.9538 16.6154 14.5385C16.6237 14.3003 16.65 14.0954 16.7026 13.932C16.7802 13.6911 16.938 13.3948 17.5237 12.9378C17.5514 12.9157 17.5375 12.9171 17.5666 12.8949C18.5677 12.2262 21.6291 10.1395 23.6257 8.78262C23.7388 9.08608 23.9547 9.34029 24.2359 9.50103C24.517 9.66178 24.8456 9.71888 25.1645 9.66241C25.4834 9.60594 25.7725 9.43947 25.9813 9.19196C26.1902 8.94444 26.3057 8.63155 26.3077 8.30769V6.23077C26.3092 6.03341 26.2686 5.83801 26.1884 5.65765C26.1083 5.47729 25.9905 5.31615 25.843 5.18503C25.6955 5.05391 25.5217 4.95584 25.3332 4.89739C25.1446 4.83895 24.9458 4.82148 24.75 4.84616ZM30.4615 14.9718V17.7411L23.5385 23.1051V20.3358L30.4615 14.9718Z" fill="white"/>
</g>
<defs>
<clipPath id="clip0">
<rect width="36" height="36" fill="white"/>
</clipPath>
</defs>
</svg>
